<svg xmlns="http://www.w3.org/2000/svg" width="260" height="64" viewBox="0 0 260 64" role="img" aria-labelledby="title desc">
  <title id="title">SmartTraffic</title>
  <desc id="desc">SmartTraffic intelligent traffic monitoring logo</desc>
  <defs>
    <linearGradient id="markGradient" x1="0" x2="1" y1="0" y2="1">
      <stop offset="0" stop-color="#6f8cff"/>
      <stop offset="1" stop-color="#54c6a6"/>
    </linearGradient>
    <linearGradient id="wordGradient" x1="0" x2="1" y1="0" y2="0">
      <stop offset="0" stop-color="#f7f9ff"/>
      <stop offset="1" stop-color="#b8c4dc"/>
    </linearGradient>
  </defs>
  <g fill="none" fill-rule="evenodd">
    <path fill="url(#markGradient)" d="M31.8 7.8c11.7 0 21.2 9.4 21.2 21.1 0 11.8-9.5 21.3-21.2 21.3-11.8 0-21.3-9.5-21.3-21.3 0-11.7 9.5-21.1 21.3-21.1Zm0 8.2c-7.2 0-13 5.8-13 12.9 0 7.2 5.8 13.1 13 13.1 7.1 0 12.9-5.9 12.9-13.1 0-7.1-5.8-12.9-12.9-12.9Z"/>
    <path stroke="#f2c94c" stroke-linecap="round" stroke-width="4" d="M31.8 19.1v10.4l7.8 5.2"/>
    <path stroke="#54c6a6" stroke-linecap="round" stroke-width="4" d="M8 55.2h47.4"/>
    <text x="71" y="30" fill="url(#wordGradient)" font-family="Inter, Arial, sans-serif" font-size="25" font-weight="800" letter-spacing=".4">SmartTraffic</text>
    <text x="73" y="48" fill="#8fa0bf" font-family="Inter, Arial, sans-serif" font-size="11" font-weight="700" letter-spacing="3">COMMAND CENTER</text>
  </g>
</svg>
